# xmcd
#
# Track frame offsets: 
#        150
#        49565
#        80043
#        115600
#        134707
#        150350
#        168957
#        181625
#        197257
#        219732
#        258225
#        271917
#        291450
#        311225
#
# Disc length: 4682 seconds
#
# Revision: 0
# Processed by: cddbd v1.5.2PL0 Copyright (c) Steve Scherf et al.
# Submitted via: ExactAudioCopyFreeDBPlugin 1.0
#
DISCID=c212480e
DTITLE=Various Artist - 2. Blues Festival Bonn '87
DYEAR=1987
DGENRE=Blues
TTITLE0=Stan Webb's Chicken Shack - Have you ever loved a woman
TTITLE1=Stan Webb's Chicken Shack - I'd rather go blind
TTITLE2=Stan Webb's Chicken Shack - The thrill has gone
TTITLE3=Dr. Feelgood - Down at the doctors
TTITLE4=Dr. Feelgood - See you later alligator
TTITLE5=Dr. Feelgood - Back in the night 
TTITLE6=Dr. Feelgood - Milk and alcohol
TTITLE7=Man - What a night
TTITLE8=Man - Jumping like a kangaroo
TTITLE9=Man - Bananas
TTITLE10=Canned Heat - Going up the country
TTITLE11=Canned Heat - Rollin' and tumblin'
TTITLE12=Canned Heat - Amphetamine Annie
TTITLE13=Session - Dust my broom
EXTD=
EXTT0=
EXTT1=
EXTT2=
EXTT3=
EXTT4=
EXTT5=
EXTT6=
EXTT7=
EXTT8=
EXTT9=
EXTT10=
EXTT11=
EXTT12=
EXTT13=
PLAYORDER=
